<svg width="296" height="225" viewBox="0 0 296 225" fill="none" xmlns="http://www.w3.org/2000/svg">
<path d="M230.406 189.969C230.594 190.031 230.99 190.177 231.594 190.406C232.219 190.615 232.906 190.792 233.656 190.938V161.5L228.75 159.844C228.271 158.719 228.031 157.427 228.031 155.969C228.031 154.781 228.219 153.719 228.594 152.781C230.094 152.385 231.896 152.083 234 151.875C236.125 151.646 238.177 151.531 240.156 151.531C243.094 151.531 245.688 151.75 247.938 152.188C248.979 154.208 250.521 158.01 252.562 163.594C254.625 169.177 257.104 176.5 260 185.562L260.531 185.5C259.927 180.354 259.323 174.323 258.719 167.406C258.135 160.469 257.844 155.719 257.844 153.156C258.927 152.656 260.135 152.271 261.469 152C262.802 151.708 264.031 151.562 265.156 151.562C266.99 151.562 268.75 151.938 270.438 152.688L267.406 192.188C268.49 193.75 269.167 195.583 269.438 197.688C268.583 198.625 267.281 199.354 265.531 199.875C263.802 200.375 261.958 200.625 260 200.625C258.479 200.625 257.094 200.469 255.844 200.156C254.615 199.844 253.656 199.365 252.969 198.719C252.99 197.156 253.125 195.729 253.375 194.438C251.812 191.312 250.302 187.875 248.844 184.125C247.406 180.354 245.573 175.354 243.344 169.125L241.969 165.312L241.781 165.344C242.219 168.594 242.688 173.385 243.188 179.719C243.688 186.031 243.938 190.646 243.938 193.562C243.938 195.896 243.24 197.656 241.844 198.844C240.469 200.031 238.312 200.625 235.375 200.625C234.458 200.625 233.479 200.448 232.438 200.094C231.396 199.74 230.448 199.292 229.594 198.75C228.76 198.188 228.177 197.646 227.844 197.125C227.844 195.625 228.073 194.198 228.531 192.844C228.99 191.49 229.615 190.531 230.406 189.969Z" fill="black"/>
<path d="M189.062 175.188C189.062 170.375 189.146 166.104 189.312 162.375L185.094 161.719C184.823 160.948 184.615 160.094 184.469 159.156C184.323 158.219 184.25 157.312 184.25 156.438C184.25 155.771 184.302 155.042 184.406 154.25C187.135 153.292 190.74 152.604 195.219 152.188C199.698 151.771 204.073 151.562 208.344 151.562C211.531 151.562 214.271 151.812 216.562 152.312C218.854 152.812 220.771 153.948 222.312 155.719C223.875 157.469 224.656 160.094 224.656 163.594C224.656 165.031 224.427 166.625 223.969 168.375C223.51 170.104 222.875 171.833 222.062 173.562C221.312 175.146 220.458 176.656 219.5 178.094C218.562 179.51 217.583 180.729 216.562 181.75C217.167 183.333 217.792 184.781 218.438 186.094C219.083 187.385 220.073 188.958 221.406 190.812L225.781 188.969C227.406 190.365 228.354 192.219 228.625 194.531C228.625 194.656 228.125 195.25 227.125 196.312C226.146 197.375 224.865 198.365 223.281 199.281C221.698 200.177 219.917 200.625 217.938 200.625C216.396 200.625 215.01 200.354 213.781 199.812C212.573 199.271 211.573 198.323 210.781 196.969C210.01 195.635 209.396 194.052 208.938 192.219C208.479 190.385 208.156 188.573 207.969 186.781L200.844 186.469C201.031 188.094 201.271 189.771 201.562 191.5C201.854 193.208 202.031 194.24 202.094 194.594C202.448 196.656 202.677 198.062 202.781 198.812C201.823 199.396 200.656 199.844 199.281 200.156C197.927 200.469 196.542 200.625 195.125 200.625C193.5 200.625 191.927 200.406 190.406 199.969C189.948 198.135 189.604 194.927 189.375 190.344C189.167 185.74 189.062 180.688 189.062 175.188ZM208.5 178.938C209.229 176.854 209.802 174.594 210.219 172.156C210.656 169.698 211.052 166.771 211.406 163.375C210.802 163.146 210.01 162.969 209.031 162.844C208.052 162.719 207.104 162.656 206.188 162.656C204.104 162.656 202.542 162.708 201.5 162.812C201.271 170.646 201.021 176.198 200.75 179.469L208.5 178.938Z" fill="black"/>
<path d="M147.25 192.344C147.25 190.49 147.635 188.688 148.406 186.938C148.76 186.938 149.312 187.01 150.062 187.156C150.833 187.281 151.635 187.448 152.469 187.656C152.344 182.031 152.281 177.417 152.281 173.812C152.281 169.333 152.365 165.51 152.531 162.344L147.719 161.688C147.448 160.917 147.24 160.073 147.094 159.156C146.948 158.219 146.875 157.312 146.875 156.438C146.875 155.771 146.927 155.042 147.031 154.25C149.51 153.312 152.771 152.635 156.812 152.219C160.875 151.781 164.969 151.562 169.094 151.562C172.99 151.562 175.812 151.74 177.562 152.094C178.688 152.781 179.667 153.479 180.5 154.188C181.354 154.875 182.167 155.729 182.938 156.75C182.938 158.208 182.792 159.792 182.5 161.5C182.229 163.188 181.844 164.74 181.344 166.156C180.865 167.573 180.344 168.594 179.781 169.219C179.302 169.448 178.771 169.625 178.188 169.75C177.604 169.854 176.885 169.906 176.031 169.906C175.281 169.906 174.635 169.844 174.094 169.719C173.573 169.573 173.073 169.365 172.594 169.094L171.531 162.281C170.219 162.073 168.656 161.969 166.844 161.969C166.344 161.969 165.844 162 165.344 162.062C165.26 165.083 164.833 169.198 164.062 174.406C168.688 173.635 172.635 173.073 175.906 172.719C176.74 173.99 177.156 175.542 177.156 177.375C177.156 178.583 176.99 179.75 176.656 180.875C176.323 182 175.958 182.781 175.562 183.219C174.688 183.365 173.646 183.438 172.438 183.438C170.875 183.438 169.25 183.302 167.562 183.031C165.896 182.76 164.333 182.365 162.875 181.844L162.469 184.5C162.219 185.979 162 187.438 161.812 188.875L181.594 187.719C181.906 188.01 182.167 188.594 182.375 189.469C182.604 190.344 182.719 191.302 182.719 192.344C182.719 194.01 182.385 195.469 181.719 196.719C181.052 197.969 180.167 198.938 179.062 199.625C177.979 200.292 176.812 200.625 175.562 200.625C174.312 200.625 172.604 200.354 170.438 199.812C168.292 199.25 166.198 198.552 164.156 197.719C162.135 196.885 160.646 196.083 159.688 195.312C158.729 196.979 157.677 198.25 156.531 199.125C155.406 200 153.948 200.5 152.156 200.625C151.26 200.479 150.438 200.021 149.688 199.25C148.938 198.479 148.344 197.49 147.906 196.281C147.469 195.073 147.25 193.76 147.25 192.344Z" fill="black"/>
<path d="M117.969 192.938C117.198 190.375 116.073 186.896 114.594 182.5C113.115 178.104 111.656 174.021 110.219 170.25C108.802 166.479 107.76 164.135 107.094 163.219L104.375 163C103.604 160.688 103.219 158.74 103.219 157.156C103.948 155.344 105.042 153.969 106.5 153.031C107.958 152.073 109.729 151.594 111.812 151.594C115.021 151.594 117.438 152.99 119.062 155.781C120.083 157.531 120.948 159.729 121.656 162.375C122.385 165 123.094 168.167 123.781 171.875C125.135 178.938 125.969 184.802 126.281 189.469L127 189.344C127.542 188.156 128.229 185.74 129.062 182.094C129.896 178.448 130.615 174.688 131.219 170.812C131.823 166.917 132.125 163.99 132.125 162.031L128 161.438C127.708 160.396 127.5 159.49 127.375 158.719C127.25 157.927 127.177 157.073 127.156 156.156C127.156 156.073 127.156 155.958 127.156 155.812C127.177 155.667 127.177 155.49 127.156 155.281C127.615 154.74 128.375 154.177 129.438 153.594C130.5 153.01 131.729 152.521 133.125 152.125C134.542 151.729 135.958 151.531 137.375 151.531C140.229 151.531 142.323 152.24 143.656 153.656C144.99 155.052 145.656 157.198 145.656 160.094C145.656 162.094 145.385 164.469 144.844 167.219C144.302 169.969 143.542 172.812 142.562 175.75C141.854 177.875 140.792 180.531 139.375 183.719C137.958 186.885 136.438 189.927 134.812 192.844C133.208 195.76 131.76 197.958 130.469 199.438C129.865 199.833 129.135 200.125 128.281 200.312C127.427 200.521 126.573 200.625 125.719 200.625C124.531 200.625 123.312 200.458 122.062 200.125C120.833 199.812 119.74 199.365 118.781 198.781C117.844 198.198 117.188 197.531 116.812 196.781L117.969 192.938Z" fill="black"/>
<path d="M64.2188 189.969C65.4896 190.385 66.6458 190.719 67.6875 190.969C69.7083 182.844 72.0104 173.25 74.5938 162.188L67.0625 161.375C66.5833 160.062 66.3438 158.573 66.3438 156.906C66.3438 155.635 66.4896 154.396 66.7812 153.188C69.8021 152.604 73.2812 152.188 77.2188 151.938C81.1771 151.667 84.5729 151.531 87.4062 151.531C89.4479 151.531 90.9792 151.542 92 151.562L93.9688 152.688C97.4688 162.292 101.021 175.281 104.625 191.656C104.667 191.823 104.74 192.156 104.844 192.656C104.969 193.156 105.062 193.635 105.125 194.094C105.188 194.531 105.219 194.948 105.219 195.344C105.219 197.094 104.594 198.51 103.344 199.594C101.594 200.281 99.4792 200.625 97 200.625C95.8333 200.625 94.6562 200.5 93.4688 200.25C92.2812 200 91.4792 199.615 91.0625 199.094L91.4375 191.031L90.6562 186.844C89.3021 186.927 87.7083 186.969 85.875 186.969C83.9167 186.969 82.0833 186.906 80.375 186.781L80 188.469C79.1875 192.094 78.5208 194.667 78 196.188C77.5 197.708 76.75 198.833 75.75 199.562C74.7708 200.292 73.3021 200.656 71.3438 200.656C70.0729 200.656 68.7917 200.49 67.5 200.156C66.2083 199.844 65.0417 199.417 64 198.875C62.9583 198.333 62.1771 197.75 61.6562 197.125C61.6562 195.625 61.8854 194.198 62.3438 192.844C62.8021 191.49 63.4271 190.531 64.2188 189.969ZM86.125 162.469H84.6875L82.4375 177.875H89.4375L86.125 162.469Z" fill="black"/>
<path d="M25.9375 176.125C25.9375 171.396 26.6354 167.188 28.0312 163.5C29.4479 159.792 31.6562 156.865 34.6562 154.719C37.6562 152.573 41.4479 151.5 46.0312 151.5C49.1562 151.5 52.4583 151.906 55.9375 152.719C57.0625 153.385 58.0417 154.083 58.875 154.812C59.7292 155.521 60.5417 156.385 61.3125 157.406C61.3125 158.885 61.1146 160.854 60.7188 163.312C60.3229 165.75 59.8229 168.031 59.2188 170.156C58.6354 172.26 58.0729 173.625 57.5312 174.25C56.9896 174.521 56.5312 174.708 56.1562 174.812C55.7812 174.896 55.1979 174.938 54.4062 174.938C53.4271 174.938 52.5104 174.865 51.6562 174.719C50.8021 174.573 50.1562 174.375 49.7188 174.125L48.625 163.594C47.1458 163.177 45.0938 162.969 42.4688 162.969C41.7604 162.969 41.2396 162.979 40.9062 163C40.0104 165.875 39.5104 169.74 39.4062 174.594C39.3854 175.177 39.375 176.062 39.375 177.25C39.375 180.042 39.5208 182.302 39.8125 184.031C40.0833 185.656 40.375 186.875 40.6875 187.688C41 188.5 41.5417 189.125 42.3125 189.562C43.1042 190 44.2812 190.219 45.8438 190.219C47.9479 190.219 49.8854 189.917 51.6562 189.312C53.4479 188.688 55.3958 187.781 57.5 186.594C58.2917 187.448 58.8958 188.146 59.3125 188.688C59.75 189.229 60.1458 189.896 60.5 190.688C60.875 191.479 61.125 192.385 61.25 193.406C60.9167 194.094 60.0312 195.01 58.5938 196.156C57.1562 197.302 55.2708 198.333 52.9375 199.25C50.6042 200.167 47.9896 200.625 45.0938 200.625C38.3229 200.625 33.4375 198.51 30.4375 194.281C27.4375 190.052 25.9375 184 25.9375 176.125Z" fill="black"/>
<path d="M102.25 131.281C102.25 131.906 102.073 132.552 101.719 133.219C101.385 133.885 100.948 134.5 100.406 135.062C99.8646 135.604 99.2396 136.052 98.5312 136.406C97.8438 136.76 97.1562 136.938 96.4688 136.938C95.4896 136.938 94.6458 136.75 93.9375 136.375C93.2292 135.979 92.6146 135.458 92.0938 134.812C91.5729 134.146 91.1458 133.396 90.8125 132.562C90.5 131.729 90.25 130.875 90.0625 130C89.875 129.104 89.7396 128.219 89.6562 127.344C89.5938 126.448 89.5625 125.635 89.5625 124.906C89.5625 124.281 89.5938 123.542 89.6562 122.688C89.7396 121.833 89.8646 120.948 90.0312 120.031C90.2188 119.115 90.4688 118.208 90.7812 117.312C91.0938 116.417 91.4792 115.615 91.9375 114.906C92.4167 114.198 92.9792 113.625 93.625 113.188C94.2917 112.75 95.0521 112.531 95.9062 112.531C96.5729 112.531 97.1667 112.667 97.6875 112.938C98.2292 113.208 98.6771 113.573 99.0312 114.031C99.4062 114.469 99.6875 114.979 99.875 115.562C100.083 116.146 100.188 116.75 100.188 117.375C100.188 118.188 100 119.073 99.625 120.031C99.25 120.99 98.7604 121.917 98.1562 122.812C97.5729 123.708 96.9062 124.521 96.1562 125.25C95.4271 125.958 94.6979 126.5 93.9688 126.875C94.0104 127.25 94.0938 127.802 94.2188 128.531C94.3438 129.24 94.5104 129.948 94.7188 130.656C94.9479 131.365 95.2083 131.979 95.5 132.5C95.8125 133.021 96.1771 133.281 96.5938 133.281C96.8021 133.281 96.9792 133.219 97.125 133.094C97.2917 132.969 97.4375 132.802 97.5625 132.594C97.6875 132.385 97.7917 132.156 97.875 131.906C97.9792 131.656 98.0729 131.417 98.1562 131.188L98.3438 130.75C98.3854 130.688 98.4062 130.646 98.4062 130.625C98.4271 130.604 98.4479 130.573 98.4688 130.531C98.6146 130.26 98.75 130.01 98.875 129.781C99.0208 129.552 99.2188 129.354 99.4688 129.188H99.4375C99.5208 129.104 99.6042 129.062 99.6875 129.062C99.7917 129.042 99.8854 129.031 99.9688 129.031C100.198 129.031 100.448 129.104 100.719 129.25C100.99 129.396 101.24 129.583 101.469 129.812C101.698 130.021 101.885 130.26 102.031 130.531C102.177 130.781 102.25 131.031 102.25 131.281ZM96.0625 117.5C96.0625 117.292 96.0521 117.073 96.0312 116.844C96.0104 116.615 95.9583 116.417 95.875 116.25C95.5833 116.604 95.3229 117.031 95.0938 117.531C94.8854 118.01 94.7083 118.521 94.5625 119.062C94.4167 119.583 94.2917 120.115 94.1875 120.656C94.1042 121.198 94.0417 121.698 94 122.156C94.5417 121.51 95.0208 120.781 95.4375 119.969C95.8542 119.135 96.0625 118.312 96.0625 117.5Z" fill="black"/>
<path d="M87.4688 135.312C87.4688 135.729 87.3333 136.031 87.0625 136.219C86.7917 136.406 86.4583 136.5 86.0625 136.5C85.8125 136.5 85.5521 136.479 85.2812 136.438C85.0104 136.375 84.75 136.312 84.5 136.25C84.0625 136.125 83.7188 135.969 83.4688 135.781C83.2396 135.594 83.0625 135.385 82.9375 135.156C82.8125 134.906 82.7292 134.635 82.6875 134.344C82.6667 134.052 82.6458 133.729 82.625 133.375C82.625 133.271 82.6146 133.177 82.5938 133.094C82.5938 133.01 82.5938 132.927 82.5938 132.844C82.5312 131.656 82.4688 130.438 82.4062 129.188C82.3646 127.938 82.3438 126.719 82.3438 125.531C82.3438 124.927 82.3438 124.323 82.3438 123.719C82.3646 123.115 82.3854 122.51 82.4062 121.906C82.4271 121.302 82.4375 120.708 82.4375 120.125C82.4583 119.521 82.4688 118.917 82.4688 118.312C82.4688 118.188 82.4583 118.073 82.4375 117.969C82.4375 117.844 82.4271 117.719 82.4062 117.594C81.8646 118.385 81.3854 119.271 80.9688 120.25C80.5729 121.208 80.2188 122.208 79.9062 123.25C79.5938 124.271 79.3229 125.302 79.0938 126.344C78.8854 127.365 78.7083 128.344 78.5625 129.281L78.4688 129.938C78.3646 130.667 78.2604 131.417 78.1562 132.188C78.0521 132.938 78 133.688 78 134.438C78 134.75 78.0521 135.094 78.1562 135.469C78.1979 135.635 78.2292 135.802 78.25 135.969C78.2917 136.115 78.3125 136.302 78.3125 136.531C78.3125 137.031 78.1875 137.365 77.9375 137.531C77.6875 137.719 77.3542 137.812 76.9375 137.812C76.6875 137.812 76.4062 137.792 76.0938 137.75C75.8021 137.708 75.5104 137.635 75.2188 137.531C74.9479 137.448 74.6875 137.333 74.4375 137.188C74.1875 137.042 73.9896 136.854 73.8438 136.625C73.7188 136.354 73.5938 135.635 73.4688 134.469C73.3646 133.302 73.2604 131.854 73.1562 130.125C73.0729 128.396 72.9896 126.458 72.9062 124.312C72.8229 122.146 72.7396 119.927 72.6562 117.656C72.5938 115.385 72.5312 113.135 72.4688 110.906C72.4271 108.677 72.3854 106.625 72.3438 104.75C72.3229 102.875 72.3021 101.25 72.2812 99.875C72.2604 98.4792 72.25 97.5 72.25 96.9375C72.25 96.5208 72.3021 96.1458 72.4062 95.8125C72.5312 95.4583 72.8646 95.2812 73.4062 95.2812C73.9688 95.2812 74.5 95.4167 75 95.6875C75.5 95.9375 75.8646 96.3333 76.0938 96.875C76.1354 96.9583 76.1771 97.3021 76.2188 97.9062C76.2604 98.4896 76.3021 99.25 76.3438 100.188C76.3854 101.104 76.4271 102.167 76.4688 103.375C76.5104 104.562 76.5521 105.802 76.5938 107.094C76.6354 108.365 76.6771 109.646 76.7188 110.938C76.7604 112.229 76.8021 113.438 76.8438 114.562L77 119.188C77.25 118.542 77.5625 117.865 77.9375 117.156C78.3125 116.448 78.7396 115.802 79.2188 115.219C79.7188 114.635 80.2708 114.156 80.875 113.781C81.5 113.406 82.1875 113.219 82.9375 113.219C83.8542 113.219 84.5729 113.458 85.0938 113.938C85.6146 114.417 86 115.01 86.25 115.719C86.5208 116.427 86.6875 117.188 86.75 118C86.8125 118.812 86.8438 119.552 86.8438 120.219C86.8438 120.635 86.8333 121.042 86.8125 121.438C86.8125 121.833 86.8021 122.229 86.7812 122.625C86.7604 123.042 86.7396 123.458 86.7188 123.875C86.7188 124.271 86.7188 124.677 86.7188 125.094C86.7188 126.531 86.75 128.01 86.8125 129.531C86.875 131.031 87.0312 132.51 87.2812 133.969L87.3438 134.406C87.3854 134.531 87.4167 134.677 87.4375 134.844C87.4583 135.01 87.4688 135.167 87.4688 135.312Z" fill="black"/>
<path d="M67 136.219C67 136.448 66.9479 136.646 66.8438 136.812C66.7396 136.958 66.6042 137.073 66.4375 137.156C66.2917 137.24 66.125 137.292 65.9375 137.312C65.7708 137.354 65.6042 137.375 65.4375 137.375C65.2083 137.375 64.9375 137.344 64.625 137.281C64.3333 137.24 64.0417 137.167 63.75 137.062C63.4583 136.958 63.1875 136.833 62.9375 136.688C62.7083 136.521 62.5312 136.323 62.4062 136.094C62.2812 135.885 62.1667 135.5 62.0625 134.938C61.9792 134.354 61.9062 133.688 61.8438 132.938C61.7812 132.167 61.7292 131.354 61.6875 130.5C61.6458 129.625 61.6042 128.792 61.5625 128C61.5417 127.208 61.5208 126.5 61.5 125.875C61.5 125.229 61.5 124.75 61.5 124.438C61.5 122.979 61.5208 121.573 61.5625 120.219C61.625 118.844 61.6875 117.438 61.75 116C61.6458 116 61.5417 116.01 61.4375 116.031C61.3333 116.052 61.2292 116.062 61.125 116.062C60.8542 116.104 60.5729 116.135 60.2812 116.156C60.0104 116.177 59.7292 116.188 59.4375 116.188C59.0833 116.188 58.7708 116.125 58.5 116C58.2292 115.875 58.0938 115.594 58.0938 115.156C58.0938 114.635 58.2083 114.219 58.4375 113.906C58.6667 113.594 58.9583 113.354 59.3125 113.188C59.6667 113 60.0521 112.875 60.4688 112.812C60.8854 112.729 61.2917 112.667 61.6875 112.625C61.75 112.625 61.7917 112.625 61.8125 112.625C61.8333 112.604 61.875 112.594 61.9375 112.594C61.9583 112.344 61.9792 112.042 62 111.688C62.0208 111.312 62.0417 110.906 62.0625 110.469C62.0833 109.781 62.1146 109.052 62.1562 108.281C62.1979 107.49 62.2396 106.74 62.2812 106.031C62.3229 105.302 62.375 104.667 62.4375 104.125C62.5 103.562 62.5625 103.167 62.625 102.938C62.7292 102.667 62.8438 102.448 62.9688 102.281C63.1146 102.115 63.375 102.031 63.75 102.031C64.5833 102.031 65.2292 102.302 65.6875 102.844C66.1458 103.385 66.375 104.052 66.375 104.844C66.375 105.76 66.3438 106.677 66.2812 107.594C66.2396 108.51 66.1979 109.438 66.1562 110.375L66.0625 111.969C66.5833 111.906 67.1042 111.812 67.625 111.688C68.125 111.583 68.625 111.49 69.125 111.406C69.6458 111.323 70.1458 111.281 70.625 111.281C71.0417 111.281 71.3646 111.396 71.5938 111.625C71.8229 111.833 71.9375 112.146 71.9375 112.562C71.9375 113.021 71.8542 113.469 71.6875 113.906C71.5208 114.344 71.2292 114.677 70.8125 114.906H70.8438C70.7604 114.948 70.5104 115.01 70.0938 115.094C69.6771 115.156 69.1979 115.219 68.6562 115.281C68.1354 115.344 67.6146 115.406 67.0938 115.469C66.5938 115.531 66.2188 115.573 65.9688 115.594H65.9375C65.8958 116.76 65.8646 117.917 65.8438 119.062C65.8229 120.188 65.8125 121.333 65.8125 122.5C65.8125 124.104 65.8542 125.812 65.9375 127.625C66.0417 129.417 66.2083 131.125 66.4375 132.75L66.6875 134.156C66.7708 134.51 66.8438 134.865 66.9062 135.219C66.9688 135.552 67 135.885 67 136.219Z" fill="black"/>
<path d="M38.8125 136.844C38.8125 137.323 38.6667 137.635 38.375 137.781C38.1042 137.927 37.7708 138 37.375 138C37.0208 138 36.6667 137.969 36.3125 137.906C35.9792 137.865 35.6562 137.771 35.3438 137.625C35.0521 137.479 34.7917 137.281 34.5625 137.031C34.3542 136.781 34.2083 136.458 34.125 136.062C33.8333 134.812 33.6667 133.594 33.625 132.406C33.5833 131.198 33.5625 129.958 33.5625 128.688V124.844C33.5625 123.094 33.6354 121.281 33.7812 119.406C33.9271 117.51 34.0833 115.688 34.25 113.938C34.25 113.875 34.2604 113.802 34.2812 113.719C34.3021 113.635 34.3125 113.573 34.3125 113.531C34.3333 113.302 34.3646 113.052 34.4062 112.781C34.4479 112.51 34.5104 112.271 34.5938 112.062C34.6979 111.833 34.8333 111.646 35 111.5C35.1875 111.354 35.4271 111.281 35.7188 111.281C36.0521 111.281 36.3646 111.354 36.6562 111.5C36.9688 111.625 37.2396 111.802 37.4688 112.031C37.6979 112.24 37.875 112.5 38 112.812C38.1458 113.125 38.2188 113.448 38.2188 113.781C38.2188 114.135 38.2083 114.531 38.1875 114.969C38.1667 115.385 38.1354 115.781 38.0938 116.156C38.0938 116.26 38.0833 116.375 38.0625 116.5C38.0625 116.625 38.0521 116.74 38.0312 116.844C38.3229 116.26 38.6562 115.656 39.0312 115.031C39.4062 114.385 39.8333 113.802 40.3125 113.281C40.8125 112.74 41.3542 112.302 41.9375 111.969C42.5417 111.635 43.2083 111.469 43.9375 111.469C44.5417 111.469 45.0417 111.562 45.4375 111.75C45.8333 111.938 46.1458 112.208 46.375 112.562C46.625 112.896 46.7917 113.292 46.875 113.75C46.9792 114.208 47.0312 114.698 47.0312 115.219C47.0312 115.927 47.0104 116.646 46.9688 117.375C46.9271 118.083 46.8854 118.792 46.8438 119.5C46.7812 120.229 46.7292 120.948 46.6875 121.656C46.6458 122.365 46.625 123.083 46.625 123.812C46.625 124.688 46.6458 125.594 46.6875 126.531C46.7292 127.448 46.7917 128.333 46.875 129.188C46.9583 130.021 47.0521 130.781 47.1562 131.469C47.2604 132.135 47.3646 132.656 47.4688 133.031C47.5521 133.344 47.6354 133.708 47.7188 134.125C47.8229 134.521 47.9167 134.938 48 135.375C48.1042 135.792 48.1875 136.198 48.25 136.594C48.3125 136.99 48.3438 137.344 48.3438 137.656C48.3438 138.115 48.1562 138.406 47.7812 138.531C47.4271 138.656 47.0729 138.719 46.7188 138.719C46.3646 138.719 45.9583 138.688 45.5 138.625C45.0625 138.583 44.6667 138.469 44.3125 138.281C43.875 137.969 43.5833 137.531 43.4375 136.969C43.3125 136.406 43.2292 135.854 43.1875 135.312L43.0938 134.469C43.0312 133.969 42.9479 133.312 42.8438 132.5C42.7396 131.688 42.6354 130.792 42.5312 129.812C42.4479 128.833 42.375 127.823 42.3125 126.781C42.25 125.719 42.2188 124.688 42.2188 123.688C42.2188 122.792 42.25 121.927 42.3125 121.094C42.3958 120.26 42.4792 119.417 42.5625 118.562C42.6042 118.125 42.6354 117.771 42.6562 117.5C42.6771 117.229 42.7083 116.875 42.75 116.438C42.3333 117.104 41.9167 117.885 41.5 118.781C41.0833 119.677 40.6875 120.615 40.3125 121.594C39.9375 122.552 39.5938 123.49 39.2812 124.406C38.9896 125.323 38.7604 126.125 38.5938 126.812L38.4062 127.5C38.3021 127.833 38.2083 128.167 38.125 128.5C38.0625 128.833 38.0312 129.146 38.0312 129.438C38.0312 129.812 38.0521 130.25 38.0938 130.75C38.1354 131.229 38.1875 131.688 38.25 132.125C38.3125 132.646 38.3854 133.177 38.4688 133.719C38.4688 133.76 38.4896 133.896 38.5312 134.125C38.5729 134.354 38.6146 134.625 38.6562 134.938C38.6979 135.25 38.7292 135.583 38.75 135.938C38.7917 136.271 38.8125 136.573 38.8125 136.844Z" fill="black"/>
<path d="M29.6875 110.719C29.6875 111.073 29.6042 111.333 29.4375 111.5C29.2917 111.646 29.0104 111.719 28.5938 111.719C28.4062 111.719 28.1146 111.698 27.7188 111.656C27.3229 111.594 26.9167 111.51 26.5 111.406C26.1042 111.302 25.75 111.156 25.4375 110.969C25.1458 110.781 25 110.552 25 110.281C25 110.198 25.0312 109.969 25.0938 109.594C25.1562 109.198 25.2292 108.781 25.3125 108.344C25.4167 107.906 25.5 107.51 25.5625 107.156C25.6458 106.802 25.7083 106.604 25.75 106.562V106.594C25.8542 106.427 25.9792 106.323 26.125 106.281C26.2708 106.24 26.4167 106.219 26.5625 106.219C26.75 106.219 26.9896 106.25 27.2812 106.312C27.5938 106.354 27.8958 106.427 28.1875 106.531C28.5 106.615 28.7812 106.729 29.0312 106.875C29.2812 107.021 29.4375 107.177 29.5 107.344C29.5625 107.51 29.5938 107.74 29.5938 108.031C29.6146 108.302 29.6146 108.552 29.5938 108.781C29.5938 108.865 29.5833 108.969 29.5625 109.094C29.5625 109.198 29.5625 109.281 29.5625 109.344C29.5625 109.448 29.5625 109.552 29.5625 109.656C29.5833 109.76 29.6042 109.865 29.625 109.969C29.6458 110.073 29.6562 110.188 29.6562 110.312C29.6771 110.438 29.6875 110.573 29.6875 110.719ZM30.8438 135.625C30.8438 136.104 30.7292 136.448 30.5 136.656C30.2917 136.844 29.9479 136.938 29.4688 136.938C29.2188 136.938 28.9375 136.906 28.625 136.844C28.3333 136.781 28.0417 136.698 27.75 136.594C27.4583 136.469 27.1875 136.323 26.9375 136.156C26.6875 135.99 26.5 135.802 26.375 135.594C26.2917 135.469 26.2188 135.083 26.1562 134.438C26.0938 133.792 26.0417 132.99 26 132.031C25.9792 131.073 25.9479 130 25.9062 128.812C25.8854 127.625 25.8646 126.427 25.8438 125.219C25.8438 124.01 25.8438 122.833 25.8438 121.688C25.8438 120.542 25.8438 119.542 25.8438 118.688V116.281C25.8438 116.073 25.8438 115.865 25.8438 115.656C25.8646 115.448 25.9062 115.271 25.9688 115.125C26.0521 114.958 26.1667 114.823 26.3125 114.719C26.4792 114.615 26.7083 114.562 27 114.562C27.9167 114.562 28.5833 114.823 29 115.344C29.4375 115.844 29.7083 116.521 29.8125 117.375C29.9167 118.646 29.9896 119.917 30.0312 121.188C30.0938 122.438 30.1458 123.708 30.1875 125C30.2292 126.167 30.2604 127.323 30.2812 128.469C30.3229 129.594 30.3958 130.719 30.5 131.844C30.5208 132.073 30.5417 132.292 30.5625 132.5C30.5833 132.708 30.6146 132.917 30.6562 133.125C30.6979 133.542 30.7396 133.958 30.7812 134.375C30.8229 134.771 30.8438 135.188 30.8438 135.625Z" fill="black"/>
<path d="M73 72.2188C73 72.4479 72.9479 72.6458 72.8438 72.8125C72.7396 72.9583 72.6042 73.0729 72.4375 73.1562C72.2917 73.2396 72.125 73.2917 71.9375 73.3125C71.7708 73.3542 71.6042 73.375 71.4375 73.375C71.2083 73.375 70.9375 73.3438 70.625 73.2812C70.3333 73.2396 70.0417 73.1667 69.75 73.0625C69.4583 72.9583 69.1875 72.8333 68.9375 72.6875C68.7083 72.5208 68.5312 72.3229 68.4062 72.0938C68.2812 71.8854 68.1667 71.5 68.0625 70.9375C67.9792 70.3542 67.9062 69.6875 67.8438 68.9375C67.7812 68.1667 67.7292 67.3542 67.6875 66.5C67.6458 65.625 67.6042 64.7917 67.5625 64C67.5417 63.2083 67.5208 62.5 67.5 61.875C67.5 61.2292 67.5 60.75 67.5 60.4375C67.5 58.9792 67.5208 57.5729 67.5625 56.2188C67.625 54.8438 67.6875 53.4375 67.75 52C67.6458 52 67.5417 52.0104 67.4375 52.0312C67.3333 52.0521 67.2292 52.0625 67.125 52.0625C66.8542 52.1042 66.5729 52.1354 66.2812 52.1562C66.0104 52.1771 65.7292 52.1875 65.4375 52.1875C65.0833 52.1875 64.7708 52.125 64.5 52C64.2292 51.875 64.0938 51.5938 64.0938 51.1562C64.0938 50.6354 64.2083 50.2188 64.4375 49.9062C64.6667 49.5938 64.9583 49.3542 65.3125 49.1875C65.6667 49 66.0521 48.875 66.4688 48.8125C66.8854 48.7292 67.2917 48.6667 67.6875 48.625C67.75 48.625 67.7917 48.625 67.8125 48.625C67.8333 48.6042 67.875 48.5938 67.9375 48.5938C67.9583 48.3438 67.9792 48.0417 68 47.6875C68.0208 47.3125 68.0417 46.9062 68.0625 46.4688C68.0833 45.7812 68.1146 45.0521 68.1562 44.2812C68.1979 43.4896 68.2396 42.7396 68.2812 42.0312C68.3229 41.3021 68.375 40.6667 68.4375 40.125C68.5 39.5625 68.5625 39.1667 68.625 38.9375C68.7292 38.6667 68.8438 38.4479 68.9688 38.2812C69.1146 38.1146 69.375 38.0312 69.75 38.0312C70.5833 38.0312 71.2292 38.3021 71.6875 38.8438C72.1458 39.3854 72.375 40.0521 72.375 40.8438C72.375 41.7604 72.3438 42.6771 72.2812 43.5938C72.2396 44.5104 72.1979 45.4375 72.1562 46.375L72.0625 47.9688C72.5833 47.9062 73.1042 47.8125 73.625 47.6875C74.125 47.5833 74.625 47.4896 75.125 47.4062C75.6458 47.3229 76.1458 47.2812 76.625 47.2812C77.0417 47.2812 77.3646 47.3958 77.5938 47.625C77.8229 47.8333 77.9375 48.1458 77.9375 48.5625C77.9375 49.0208 77.8542 49.4688 77.6875 49.9062C77.5208 50.3438 77.2292 50.6771 76.8125 50.9062H76.8438C76.7604 50.9479 76.5104 51.0104 76.0938 51.0938C75.6771 51.1562 75.1979 51.2188 74.6562 51.2812C74.1354 51.3438 73.6146 51.4062 73.0938 51.4688C72.5938 51.5312 72.2188 51.5729 71.9688 51.5938H71.9375C71.8958 52.7604 71.8646 53.9167 71.8438 55.0625C71.8229 56.1875 71.8125 57.3333 71.8125 58.5C71.8125 60.1042 71.8542 61.8125 71.9375 63.625C72.0417 65.4167 72.2083 67.125 72.4375 68.75L72.6875 70.1562C72.7708 70.5104 72.8438 70.8646 72.9062 71.2188C72.9688 71.5521 73 71.8854 73 72.2188Z" fill="black"/>
<path d="M64.4375 72.5938C64.4375 73.0104 64.3333 73.2917 64.125 73.4375C63.9167 73.6042 63.625 73.6875 63.25 73.6875C62.2708 73.6875 61.5625 73.4271 61.125 72.9062C60.7083 72.3854 60.3958 71.6979 60.1875 70.8438C60.125 70.5521 60.0625 70.2604 60 69.9688C59.9375 69.6562 59.8854 69.3542 59.8438 69.0625C59.8021 68.7917 59.7604 68.6042 59.7188 68.5C59.6771 68.3958 59.6354 68.1979 59.5938 67.9062C59.3438 68.5104 59.0312 69.1458 58.6562 69.8125C58.3021 70.4583 57.8854 71.0625 57.4062 71.625C56.9271 72.1667 56.3854 72.6146 55.7812 72.9688C55.1979 73.3229 54.5521 73.5 53.8438 73.5C53.0938 73.5 52.4688 73.3229 51.9688 72.9688C51.4688 72.5938 51.0729 72.1354 50.7812 71.5938C50.5104 71.0312 50.3125 70.4167 50.1875 69.75C50.0833 69.0833 50.0312 68.4479 50.0312 67.8438C50.0312 66.4271 50.1667 64.8958 50.4375 63.25C50.7292 61.5833 51.125 59.9271 51.625 58.2812C52.125 56.6146 52.7083 55.0208 53.375 53.5C54.0417 51.9583 54.7708 50.6146 55.5625 49.4688V49.5L55.75 49.2188C55.9792 48.9062 56.2396 48.5729 56.5312 48.2188C56.8438 47.8438 57.2083 47.6562 57.625 47.6562C58.0208 47.6562 58.3646 47.8333 58.6562 48.1875C58.9479 48.5208 59.1562 48.875 59.2812 49.25C59.8229 49.3542 60.2604 49.4896 60.5938 49.6562C60.9271 49.8021 61.1875 49.9896 61.375 50.2188C61.5625 50.4479 61.6875 50.7188 61.75 51.0312C61.8125 51.3229 61.8438 51.6458 61.8438 52C61.8438 52.1458 61.8438 52.3021 61.8438 52.4688C61.8438 52.6354 61.8333 52.8021 61.8125 52.9688C61.7917 53.1354 61.7812 53.3333 61.7812 53.5625C61.7812 53.7917 61.7812 54 61.7812 54.1875C61.7812 54.3958 61.8125 54.6667 61.875 55C61.9583 55.3333 62.0417 55.6771 62.125 56.0312L62.3438 57.1875C62.4479 57.7917 62.5312 58.4792 62.5938 59.25C62.6771 60.0208 62.7708 60.7917 62.875 61.5625C62.9583 62.3542 63.0417 63.125 63.125 63.875C63.2083 64.6042 63.2917 65.2812 63.375 65.9062L64.125 70.5312L64.2188 71.0625C64.2604 71.3333 64.3021 71.5833 64.3438 71.8125C64.4062 72.0417 64.4375 72.3021 64.4375 72.5938ZM57.2812 54.625C57.2812 54.5833 57.2708 54.5208 57.25 54.4375C57.2292 54.3333 57.2083 54.2292 57.1875 54.125C56.7083 55.1458 56.2812 56.2604 55.9062 57.4688C55.5521 58.6562 55.25 59.875 55 61.125C54.7708 62.3542 54.5938 63.5938 54.4688 64.8438C54.3646 66.0729 54.3125 67.2396 54.3125 68.3438C54.3125 68.4479 54.3125 68.5417 54.3125 68.625C54.3125 68.7083 54.3229 68.7917 54.3438 68.875V68.9062C54.8438 68.1354 55.2708 67.125 55.625 65.875C56 64.6042 56.3125 63.2812 56.5625 61.9062C56.8125 60.5104 56.9896 59.1667 57.0938 57.875C57.2188 56.5625 57.2812 55.4792 57.2812 54.625Z" fill="black"/>
<path d="M49.8438 63.75C49.8438 64.0625 49.7917 64.375 49.6875 64.6875C49.6042 64.9792 49.5104 65.2708 49.4062 65.5625C48.9479 66.75 48.3854 67.8542 47.7188 68.875C47.0521 69.875 46.2812 70.7396 45.4062 71.4688C44.5312 72.1979 43.5417 72.7708 42.4375 73.1875C41.3333 73.6042 40.1146 73.8125 38.7812 73.8125C37.0104 73.8125 35.4896 73.4375 34.2188 72.6875C32.9479 71.9375 31.8646 70.9688 30.9688 69.7812C30.0729 68.5729 29.3333 67.2292 28.75 65.75C28.1875 64.2708 27.7396 62.7917 27.4062 61.3125C26.9062 59.1667 26.5208 57.0208 26.25 54.875C25.9792 52.7083 25.8438 50.5417 25.8438 48.375C25.8438 47.1042 25.8958 45.7917 26 44.4375C26.125 43.0833 26.3333 41.75 26.625 40.4375C26.9167 39.1042 27.3125 37.8229 27.8125 36.5938C28.3125 35.3438 28.9375 34.1979 29.6875 33.1562C30.4375 32.0938 31.3229 31.1562 32.3438 30.3438C33.3854 29.5312 34.5938 28.8958 35.9688 28.4375C36.4688 28.25 36.9896 28.125 37.5312 28.0625C38.0729 27.9792 38.6146 27.9375 39.1562 27.9375C40.2396 27.9375 41.2708 28.1146 42.25 28.4688C43.2292 28.8229 44.0833 29.3229 44.8125 29.9688C45.5625 30.6146 46.1458 31.3958 46.5625 32.3125C47 33.2292 47.2188 34.25 47.2188 35.375C47.2188 35.75 47.1354 36.0312 46.9688 36.2188C46.8021 36.4062 46.5104 36.5 46.0938 36.5C45.3229 36.5 44.7188 36.375 44.2812 36.125C43.8646 35.875 43.5208 35.5625 43.25 35.1875C42.9792 34.8125 42.75 34.4062 42.5625 33.9688C42.3958 33.5312 42.1875 33.125 41.9375 32.75C41.6875 32.375 41.3542 32.0625 40.9375 31.8125C40.5208 31.5625 39.9479 31.4375 39.2188 31.4375C38.4896 31.4375 37.8021 31.5833 37.1562 31.875C36.5312 32.1458 35.9479 32.5104 35.4062 32.9688C34.8854 33.4271 34.4062 33.9479 33.9688 34.5312C33.5521 35.0938 33.1771 35.6667 32.8438 36.25C31.9688 37.875 31.3542 39.6146 31 41.4688C30.6458 43.3021 30.4688 45.1458 30.4688 47C30.4688 47.625 30.4896 48.4375 30.5312 49.4375C30.5938 50.4167 30.6771 51.5 30.7812 52.6875C30.9062 53.875 31.0729 55.1354 31.2812 56.4688C31.4896 57.7812 31.7396 59.0729 32.0312 60.3438C32.3438 61.6146 32.7083 62.8333 33.125 64C33.5625 65.1667 34.0521 66.1875 34.5938 67.0625C35.1562 67.9375 35.7812 68.6354 36.4688 69.1562C37.1771 69.6771 37.9688 69.9375 38.8438 69.9375C39.7396 69.9375 40.5312 69.7083 41.2188 69.25C41.9062 68.7708 42.4896 68.1771 42.9688 67.4688C43.4688 66.7396 43.875 65.9583 44.1875 65.125C44.5208 64.2708 44.7812 63.4792 44.9688 62.75C45.0312 62.5417 45.0833 62.3542 45.125 62.1875C45.1875 62.0208 45.2604 61.875 45.3438 61.75C45.4479 61.625 45.5729 61.5312 45.7188 61.4688C45.8646 61.4062 46.0729 61.375 46.3438 61.375C46.6354 61.375 46.9792 61.4375 47.375 61.5625C47.7917 61.6667 48.1771 61.8229 48.5312 62.0312C48.9062 62.2396 49.2188 62.4896 49.4688 62.7812C49.7188 63.0729 49.8438 63.3958 49.8438 63.75Z" fill="black"/>
<path d="M74.5625 19.5625C78.6335 20.4671 82.8369 22.6068 86.1914 26.5713C87.9701 28.6734 89.2358 30.9593 90.0713 33.292C90.173 33.3815 90.273 33.4739 90.374 33.5664C90.3764 33.5686 90.3795 33.5711 90.3818 33.5732C90.4895 33.672 90.5964 33.7728 90.7031 33.875C95.8437 38.7555 96.9375 44.8049 96.9375 48.5625C96.9375 51.3825 96.4139 54.1196 95.4424 56.6699C94.4247 59.3413 92.8999 61.7182 90.9893 63.707C91.0511 64.4609 91.1277 65.1668 91.2158 65.8271L91.3223 66.4248C91.4156 66.8532 91.5013 67.2839 91.5801 67.7168C91.5808 67.7206 91.5823 67.7248 91.583 67.7285C91.5944 67.7913 91.6061 67.8542 91.6172 67.917H91.6152C91.742 68.6252 91.8391 69.3417 91.9033 70.0654L93.3857 67.8994L96.3633 85.7676L97.875 88.3203L107.247 96.5098C109.664 97.8791 111.88 99.7102 113.734 101.998C115.621 104.284 116.969 106.808 117.845 109.393C117.936 109.657 118.024 109.921 118.106 110.188L119.062 124.312L125.638 134.575C126.411 134.305 127.18 134.062 127.941 133.846L128.012 133.826C131.029 132.983 134.165 132.531 137.375 132.531C140.396 132.531 144.147 132.932 147.951 134.34C150.241 133.883 152.56 133.557 154.848 133.32C159.569 132.814 164.319 132.562 169.094 132.562C172.88 132.562 177.03 132.695 180.621 133.336L181.331 133.472L184.613 134.136L185.121 134.446C187.853 133.904 190.661 133.53 193.459 133.27C198.492 132.801 203.455 132.562 208.344 132.562C212.443 132.562 216.613 132.876 220.612 133.749C221.561 133.956 222.493 134.207 223.405 134.5L223.746 134.41C226.446 133.698 229.24 133.26 231.963 132.984L232.993 132.88C235.395 132.651 237.784 132.531 240.156 132.531C243.75 132.531 247.359 132.779 250.864 133.406L251.564 133.537L254.634 134.134C255.562 133.863 256.489 133.633 257.408 133.439C257.466 133.427 257.525 133.415 257.583 133.402C257.618 133.395 257.652 133.387 257.687 133.38C260.005 132.889 262.519 132.562 265.156 132.562C269.668 132.562 274.056 133.504 278.154 135.325L290.408 140.771L286.731 188.669C287.49 190.841 287.998 193.053 288.282 195.262L289.404 203.983L283.482 210.483C279.493 214.862 274.64 216.988 270.951 218.086L270.809 218.127C267.221 219.164 263.588 219.625 260 219.625C257.196 219.625 254.234 219.339 251.235 218.589L251.199 218.58L251.162 218.57C250.03 218.283 248.798 217.895 247.518 217.373C243.029 219.24 238.594 219.625 235.375 219.625C232.266 219.625 229.42 219.071 226.932 218.282C223.968 219.201 220.936 219.625 217.938 219.625C214.475 219.625 210.799 219.06 207.16 217.629C205.926 218.062 204.715 218.403 203.553 218.669C200.771 219.311 197.951 219.625 195.125 219.625C191.771 219.625 188.427 219.17 185.153 218.229L184.463 218.029C181.651 219.074 178.653 219.625 175.562 219.625C171.998 219.625 168.521 218.918 165.829 218.245L165.725 218.219L165.62 218.191C164.649 217.937 163.685 217.659 162.728 217.363C159.559 218.741 156.366 219.378 153.479 219.579L151.279 219.732L149.104 219.378C145.604 218.808 142.591 217.496 140.08 215.83C137.438 217.417 134.761 218.343 132.355 218.871L132.354 218.869C130.203 219.361 127.983 219.625 125.719 219.625C122.817 219.625 120.024 219.225 117.381 218.538C117.356 218.532 117.331 218.526 117.307 218.52C117.26 218.507 117.213 218.496 117.167 218.483C115.434 218.031 113.681 217.423 111.947 216.627L110.291 217.278C105.747 219.064 101.14 219.625 97 219.625C94.4664 219.625 91.9776 219.353 89.5547 218.843C88.365 218.592 86.188 218.075 83.7256 216.888C79.0411 219.263 74.3763 219.656 71.3438 219.656C68.3936 219.656 65.5174 219.267 62.752 218.554V218.551C61.4482 218.225 60.1335 217.824 58.8232 217.33C54.2943 218.951 49.6469 219.625 45.0938 219.625C34.2435 219.625 22.5565 216.011 14.9404 205.274C8.75769 196.558 6.9375 186.018 6.9375 176.125C6.9375 174.871 6.97447 173.617 7.04785 172.367L6.75 172.843V115.721C6.278 114.067 6 112.255 6 110.281C6 109.301 6.07836 108.523 6.10059 108.301C6.13491 107.958 6.17163 107.667 6.19727 107.479C6.23942 107.17 6.2881 106.876 6.32812 106.631H6.32617C6.42309 106.017 6.53172 105.402 6.64844 104.789L6.72852 104.363L6.8291 103.943C6.8468 103.869 6.85643 103.823 6.86035 103.805L6.94434 103.326L7.06738 102.805C7.15001 102.454 7.31238 101.785 7.55371 101.021C7.66726 100.661 7.90737 99.927 8.29004 99.0469C8.37836 98.8436 9.56068 95.8827 12.3154 93.1279L12.4199 93.0234C12.4494 92.9938 12.479 92.9642 12.5088 92.9346L19.8389 85.6045C18.3554 84.2838 17.0047 82.8195 15.8008 81.2236L15.7529 81.1602L15.7061 81.0967C13.7645 78.4778 12.2341 75.6593 11.0752 72.7207L11.0322 72.6123L10.9912 72.5039C10.1233 70.2217 9.41024 67.8817 8.87109 65.4893L8.87207 65.4883C8.24137 62.7611 7.74799 60.0157 7.39941 57.2539L7.39844 57.2432L7.39648 57.2314C7.02871 54.2892 6.84375 51.3355 6.84375 48.375C6.84375 46.5862 6.91673 44.7866 7.05566 42.9805L7.06738 42.8359L7.08008 42.6914C7.27606 40.5683 7.60391 38.4616 8.06445 36.377C8.57329 34.0509 9.27311 31.7658 10.1729 29.5371C10.1789 29.5221 10.1844 29.5072 10.1904 29.4922C10.1982 29.4731 10.2051 29.4537 10.2129 29.4346C11.2311 26.9112 12.5412 24.4819 14.166 22.2002C15.958 19.6616 18.0863 17.4079 20.5117 15.4775L20.6582 15.3623C23.5232 13.1276 26.6459 11.5337 29.8281 10.458C31.4713 9.8829 33.1481 9.48527 34.8369 9.25586C36.2603 9.04645 37.7023 8.9375 39.1562 8.9375C42.1533 8.9375 45.1751 9.40396 48.124 10.3965L48.7129 10.6016L49.2881 10.8174C51.29 11.5918 53.2389 12.6148 55.0771 13.9063L60.7188 15.3623H66.2812L69.75 19.5625L68.0156 17.4624L71.3438 22.2002L74.5625 19.5625ZM87.4062 151.531C84.5729 151.531 81.1771 151.667 77.2188 151.938C73.2812 152.188 69.8021 152.604 66.7812 153.188C66.4896 154.396 66.3438 155.635 66.3438 156.906C66.3438 158.573 66.5833 160.062 67.0625 161.375L74.5938 162.188C72.0104 173.25 69.7083 182.844 67.6875 190.969C66.6458 190.719 65.4896 190.385 64.2188 189.969C63.4271 190.531 62.8021 191.49 62.3438 192.844C61.8854 194.198 61.6562 195.625 61.6562 197.125C62.1771 197.75 62.9583 198.333 64 198.875C65.0417 199.417 66.2083 199.844 67.5 200.156C68.7917 200.49 70.0729 200.656 71.3438 200.656C73.3021 200.656 74.7708 200.292 75.75 199.562C76.75 198.833 77.5 197.708 78 196.188C78.5208 194.667 79.1875 192.094 80 188.469L80.375 186.781C82.0833 186.906 83.9167 186.969 85.875 186.969C87.7083 186.969 89.3021 186.927 90.6562 186.844L91.4375 191.031L91.0625 199.094C91.4792 199.615 92.2812 200 93.4688 200.25C94.6562 200.5 95.8333 200.625 97 200.625C99.4792 200.625 101.594 200.281 103.344 199.594C104.594 198.51 105.219 197.094 105.219 195.344C105.219 194.948 105.188 194.531 105.125 194.094C105.062 193.635 104.969 193.156 104.844 192.656C104.74 192.156 104.667 191.823 104.625 191.656C101.021 175.281 97.4688 162.292 93.9688 152.688L92 151.562C90.9792 151.542 89.4479 151.531 87.4062 151.531ZM46.0312 151.5C41.4479 151.5 37.6562 152.573 34.6562 154.719C31.6562 156.865 29.4479 159.792 28.0312 163.5C26.6354 167.188 25.9375 171.396 25.9375 176.125C25.9375 184 27.4375 190.052 30.4375 194.281C33.4375 198.51 38.3229 200.625 45.0938 200.625C47.9896 200.625 50.6042 200.167 52.9375 199.25C55.2708 198.333 57.1562 197.302 58.5938 196.156C60.0312 195.01 60.9167 194.094 61.25 193.406C61.125 192.385 60.875 191.479 60.5 190.688C60.1458 189.896 59.75 189.229 59.3125 188.688C58.8958 188.146 58.2917 187.448 57.5 186.594C55.3958 187.781 53.4479 188.688 51.6562 189.312C49.8854 189.917 47.9479 190.219 45.8438 190.219C44.2812 190.219 43.1042 190 42.3125 189.562C41.5417 189.125 41 188.5 40.6875 187.688C40.375 186.875 40.0833 185.656 39.8125 184.031C39.5208 182.302 39.375 180.042 39.375 177.25C39.375 176.062 39.3854 175.177 39.4062 174.594C39.5104 169.74 40.0104 165.875 40.9062 163C41.2396 162.979 41.7604 162.969 42.4688 162.969C45.0938 162.969 47.1458 163.177 48.625 163.594L49.7188 174.125C50.1562 174.375 50.8021 174.573 51.6562 174.719C52.5104 174.865 53.4271 174.938 54.4062 174.938C55.1979 174.938 55.7812 174.896 56.1562 174.812C56.5312 174.708 56.9896 174.521 57.5312 174.25C58.0729 173.625 58.6354 172.26 59.2188 170.156C59.8229 168.031 60.3229 165.75 60.7188 163.312C61.1146 160.854 61.3125 158.885 61.3125 157.406C60.5417 156.385 59.7292 155.521 58.875 154.812C58.0417 154.083 57.0625 153.385 55.9375 152.719C52.4583 151.906 49.1562 151.5 46.0312 151.5ZM137.375 151.531C135.958 151.531 134.542 151.729 133.125 152.125C131.729 152.521 130.5 153.01 129.438 153.594C128.375 154.177 127.615 154.74 127.156 155.281C127.177 155.49 127.177 155.667 127.156 155.812V156.156C127.177 157.073 127.25 157.927 127.375 158.719C127.5 159.49 127.708 160.396 128 161.438L132.125 162.031C132.125 163.99 131.823 166.917 131.219 170.812C130.615 174.688 129.896 178.448 129.062 182.094C128.229 185.74 127.542 188.156 127 189.344L126.281 189.469C125.969 184.802 125.135 178.938 123.781 171.875C123.094 168.167 122.385 165 121.656 162.375C120.948 159.729 120.083 157.531 119.062 155.781C117.438 152.99 115.021 151.594 111.812 151.594C109.729 151.594 107.958 152.073 106.5 153.031C105.042 153.969 103.948 155.344 103.219 157.156C103.219 158.74 103.604 160.688 104.375 163L107.094 163.219C107.76 164.135 108.802 166.479 110.219 170.25C111.656 174.021 113.115 178.104 114.594 182.5C116.073 186.896 117.198 190.375 117.969 192.938L116.812 196.781C117.188 197.531 117.844 198.198 118.781 198.781C119.74 199.365 120.833 199.812 122.062 200.125C123.312 200.458 124.531 200.625 125.719 200.625C126.573 200.625 127.427 200.521 128.281 200.312C129.135 200.125 129.865 199.833 130.469 199.438C131.76 197.958 133.208 195.76 134.812 192.844C136.438 189.927 137.958 186.885 139.375 183.719C140.792 180.531 141.854 177.875 142.562 175.75C143.542 172.812 144.302 169.969 144.844 167.219C145.385 164.469 145.656 162.094 145.656 160.094C145.656 157.198 144.99 155.052 143.656 153.656C142.323 152.24 140.229 151.531 137.375 151.531ZM169.094 151.562C164.969 151.562 160.875 151.781 156.812 152.219C152.771 152.635 149.51 153.312 147.031 154.25C146.927 155.042 146.875 155.771 146.875 156.438C146.875 157.312 146.948 158.219 147.094 159.156C147.24 160.073 147.448 160.917 147.719 161.688L152.531 162.344C152.365 165.51 152.281 169.333 152.281 173.812C152.281 177.417 152.344 182.031 152.469 187.656C151.635 187.448 150.833 187.281 150.062 187.156C149.312 187.01 148.76 186.938 148.406 186.938C147.635 188.688 147.25 190.49 147.25 192.344C147.25 193.76 147.469 195.073 147.906 196.281C148.344 197.49 148.938 198.479 149.688 199.25C150.438 200.021 151.26 200.479 152.156 200.625C153.948 200.5 155.406 200 156.531 199.125C157.677 198.25 158.729 196.979 159.688 195.312C160.646 196.083 162.135 196.885 164.156 197.719C166.198 198.552 168.292 199.25 170.438 199.812C172.604 200.354 174.312 200.625 175.562 200.625C176.812 200.625 177.979 200.292 179.062 199.625C180.167 198.938 181.052 197.969 181.719 196.719C182.385 195.469 182.719 194.01 182.719 192.344C182.719 191.302 182.604 190.344 182.375 189.469C182.167 188.594 181.906 188.01 181.594 187.719L161.812 188.875C162 187.438 162.219 185.979 162.469 184.5L162.875 181.844C164.333 182.365 165.896 182.76 167.562 183.031C169.25 183.302 170.875 183.438 172.438 183.438C173.646 183.438 174.688 183.365 175.562 183.219C175.958 182.781 176.323 182 176.656 180.875C176.99 179.75 177.156 178.583 177.156 177.375C177.156 175.542 176.74 173.99 175.906 172.719C172.635 173.073 168.688 173.635 164.062 174.406C164.833 169.198 165.26 165.083 165.344 162.062C165.844 162 166.344 161.969 166.844 161.969C168.656 161.969 170.219 162.073 171.531 162.281L172.594 169.094C173.073 169.365 173.573 169.573 174.094 169.719C174.635 169.844 175.281 169.906 176.031 169.906C176.885 169.906 177.604 169.854 178.188 169.75C178.771 169.625 179.302 169.448 179.781 169.219C180.344 168.594 180.865 167.573 181.344 166.156C181.844 164.74 182.229 163.188 182.5 161.5C182.792 159.792 182.938 158.208 182.938 156.75C182.167 155.729 181.354 154.875 180.5 154.188C179.667 153.479 178.688 152.781 177.562 152.094C175.812 151.74 172.99 151.562 169.094 151.562ZM240.156 151.531C238.177 151.531 236.125 151.646 234 151.875C231.896 152.083 230.094 152.385 228.594 152.781C228.219 153.719 228.031 154.781 228.031 155.969C228.031 157.427 228.271 158.719 228.75 159.844L233.656 161.5V190.938C232.906 190.792 232.219 190.615 231.594 190.406C230.99 190.177 230.594 190.031 230.406 189.969C229.615 190.531 228.99 191.49 228.531 192.844C228.484 192.984 228.44 193.124 228.397 193.266C227.97 191.532 227.098 190.1 225.781 188.969L221.406 190.812C220.073 188.958 219.083 187.385 218.438 186.094C217.792 184.781 217.167 183.333 216.562 181.75C217.583 180.729 218.562 179.51 219.5 178.094C220.458 176.656 221.312 175.146 222.062 173.562C222.875 171.833 223.51 170.104 223.969 168.375C224.427 166.625 224.656 165.031 224.656 163.594C224.656 160.094 223.875 157.469 222.312 155.719C220.771 153.948 218.854 152.812 216.562 152.312C214.271 151.812 211.531 151.562 208.344 151.562C204.073 151.562 199.698 151.771 195.219 152.188C190.74 152.604 187.135 153.292 184.406 154.25C184.302 155.042 184.25 155.771 184.25 156.438C184.25 157.312 184.323 158.219 184.469 159.156C184.615 160.094 184.823 160.948 185.094 161.719L189.312 162.375C189.146 166.104 189.062 170.375 189.062 175.188C189.062 180.688 189.167 185.74 189.375 190.344C189.604 194.927 189.948 198.135 190.406 199.969C191.927 200.406 193.5 200.625 195.125 200.625C196.542 200.625 197.927 200.469 199.281 200.156C200.656 199.844 201.823 199.396 202.781 198.812C202.677 198.062 202.448 196.656 202.094 194.594C202.031 194.24 201.854 193.208 201.562 191.5C201.271 189.771 201.031 188.094 200.844 186.469L207.969 186.781C208.156 188.573 208.479 190.385 208.938 192.219C209.396 194.052 210.01 195.635 210.781 196.969C211.573 198.323 212.573 199.271 213.781 199.812C215.01 200.354 216.396 200.625 217.938 200.625C219.917 200.625 221.698 200.177 223.281 199.281C224.865 198.365 226.146 197.375 227.125 196.312C227.454 195.963 227.726 195.661 227.947 195.413C227.878 195.973 227.844 196.543 227.844 197.125C228.177 197.646 228.76 198.188 229.594 198.75C230.448 199.292 231.396 199.74 232.438 200.094C233.479 200.448 234.458 200.625 235.375 200.625C238.312 200.625 240.469 200.031 241.844 198.844C243.24 197.656 243.938 195.896 243.938 193.562C243.938 190.646 243.688 186.031 243.188 179.719C242.688 173.385 242.219 168.594 241.781 165.344L241.969 165.312L243.344 169.125C245.573 175.354 247.406 180.354 248.844 184.125C250.302 187.875 251.812 191.312 253.375 194.438C253.125 195.729 252.99 197.156 252.969 198.719C253.656 199.365 254.615 199.844 255.844 200.156C257.094 200.469 258.479 200.625 260 200.625C261.958 200.625 263.802 200.375 265.531 199.875C267.281 199.354 268.583 198.625 269.438 197.688C269.167 195.583 268.49 193.75 267.406 192.188L270.438 152.688C268.75 151.938 266.99 151.562 265.156 151.562C264.031 151.562 262.802 151.708 261.469 152C260.135 152.271 258.927 152.656 257.844 153.156C257.844 155.719 258.135 160.469 258.719 167.406C259.323 174.323 259.927 180.354 260.531 185.5L260 185.562C257.104 176.5 254.625 169.177 252.562 163.594C250.521 158.01 248.979 154.208 247.938 152.188C245.688 151.75 243.094 151.531 240.156 151.531ZM206.188 162.656C207.104 162.656 208.052 162.719 209.031 162.844C210.01 162.969 210.802 163.146 211.406 163.375C211.052 166.771 210.656 169.698 210.219 172.156C209.802 174.594 209.229 176.854 208.5 178.938L200.75 179.469C201.021 176.198 201.271 170.646 201.5 162.812C202.542 162.708 204.104 162.656 206.188 162.656ZM86.125 162.469L89.4375 177.875H82.4375L84.6875 162.469H86.125ZM73.4062 95.2812C72.8646 95.2812 72.5312 95.4583 72.4062 95.8125C72.3021 96.1458 72.25 96.5208 72.25 96.9375C72.25 97.5 72.2604 98.4792 72.2812 99.875C72.3021 101.25 72.3229 102.875 72.3438 104.75C72.3854 106.625 72.4271 108.677 72.4688 110.906C72.5312 113.135 72.5938 115.385 72.6562 117.656C72.7396 119.927 72.8229 122.146 72.9062 124.312C72.9896 126.458 73.0729 128.396 73.1562 130.125C73.2604 131.854 73.3646 133.302 73.4688 134.469C73.5938 135.635 73.7188 136.354 73.8438 136.625C73.9896 136.854 74.1875 137.042 74.4375 137.188C74.6875 137.333 74.9479 137.448 75.2188 137.531C75.5104 137.635 75.8021 137.708 76.0938 137.75C76.4062 137.792 76.6875 137.812 76.9375 137.812C77.3542 137.812 77.6875 137.719 77.9375 137.531C78.1875 137.365 78.3125 137.031 78.3125 136.531C78.3125 136.302 78.2917 136.115 78.25 135.969C78.2292 135.802 78.1979 135.635 78.1562 135.469C78.0521 135.094 78 134.75 78 134.438C78 133.688 78.0521 132.938 78.1562 132.188C78.2604 131.417 78.3646 130.667 78.4688 129.938L78.5625 129.281C78.7083 128.344 78.8854 127.365 79.0938 126.344C79.3229 125.302 79.5938 124.271 79.9062 123.25C80.2188 122.208 80.5729 121.208 80.9688 120.25C81.3854 119.271 81.8646 118.385 82.4062 117.594C82.4271 117.719 82.4375 117.844 82.4375 117.969C82.4583 118.073 82.4688 118.188 82.4688 118.312C82.4688 118.917 82.4583 119.521 82.4375 120.125C82.4375 120.708 82.4271 121.302 82.4062 121.906L82.3438 123.719V125.531C82.3438 126.719 82.3646 127.938 82.4062 129.188C82.4688 130.438 82.5312 131.656 82.5938 132.844V133.094C82.6146 133.177 82.625 133.271 82.625 133.375C82.6458 133.729 82.6667 134.052 82.6875 134.344C82.7292 134.635 82.8125 134.906 82.9375 135.156C83.0625 135.385 83.2396 135.594 83.4688 135.781C83.7188 135.969 84.0625 136.125 84.5 136.25C84.75 136.312 85.0104 136.375 85.2812 136.438C85.5521 136.479 85.8125 136.5 86.0625 136.5C86.4583 136.5 86.7917 136.406 87.0625 136.219C87.3333 136.031 87.4688 135.729 87.4688 135.312C87.4688 135.167 87.4583 135.01 87.4375 134.844C87.4167 134.677 87.3854 134.531 87.3438 134.406L87.2812 133.969C87.0312 132.51 86.875 131.031 86.8125 129.531C86.75 128.01 86.7188 126.531 86.7188 125.094V123.875L86.7812 122.625C86.8021 122.229 86.8125 121.833 86.8125 121.438C86.8333 121.042 86.8438 120.635 86.8438 120.219C86.8438 119.552 86.8125 118.812 86.75 118C86.6875 117.188 86.5208 116.427 86.25 115.719C86 115.01 85.6146 114.417 85.0938 113.938C84.5729 113.458 83.8542 113.219 82.9375 113.219C82.1875 113.219 81.5 113.406 80.875 113.781C80.2708 114.156 79.7188 114.635 79.2188 115.219C78.7396 115.802 78.3125 116.448 77.9375 117.156C77.5625 117.865 77.25 118.542 77 119.188L76.8438 114.562C76.8021 113.438 76.7604 112.229 76.7188 110.938C76.6771 109.646 76.6354 108.365 76.5938 107.094C76.5521 105.802 76.5104 104.562 76.4688 103.375C76.4271 102.167 76.3854 101.104 76.3438 100.188C76.3021 99.25 76.2604 98.4896 76.2188 97.9062C76.1771 97.3021 76.1354 96.9583 76.0938 96.875C75.8646 96.3333 75.5 95.9375 75 95.6875C74.5 95.4167 73.9688 95.2812 73.4062 95.2812ZM63.75 102.031C63.375 102.031 63.1146 102.115 62.9688 102.281C62.8438 102.448 62.7292 102.667 62.625 102.938C62.5625 103.167 62.5 103.562 62.4375 104.125C62.375 104.667 62.3229 105.302 62.2812 106.031C62.2396 106.74 62.1979 107.49 62.1562 108.281C62.1146 109.052 62.0833 109.781 62.0625 110.469C62.0417 110.906 62.0208 111.312 62 111.688C61.9792 112.042 61.9583 112.344 61.9375 112.594C61.875 112.594 61.8333 112.604 61.8125 112.625H61.6875C61.2917 112.667 60.8854 112.729 60.4688 112.812C60.0521 112.875 59.6667 113 59.3125 113.188C58.9583 113.354 58.6667 113.594 58.4375 113.906C58.2083 114.219 58.0938 114.635 58.0938 115.156C58.0938 115.594 58.2292 115.875 58.5 116C58.7708 116.125 59.0833 116.188 59.4375 116.188C59.7292 116.188 60.0104 116.177 60.2812 116.156C60.5729 116.135 60.8542 116.104 61.125 116.062C61.1771 116.062 61.2292 116.06 61.2812 116.055L61.5938 116.008C61.6458 116.003 61.6979 116 61.75 116C61.6875 117.438 61.625 118.844 61.5625 120.219C61.5208 121.573 61.5 122.979 61.5 124.438V125.875C61.5208 126.5 61.5417 127.208 61.5625 128C61.6042 128.792 61.6458 129.625 61.6875 130.5C61.7292 131.354 61.7812 132.167 61.8438 132.938C61.9062 133.688 61.9792 134.354 62.0625 134.938C62.1667 135.5 62.2812 135.885 62.4062 136.094C62.5312 136.323 62.7083 136.521 62.9375 136.688C63.1875 136.833 63.4583 136.958 63.75 137.062C64.0417 137.167 64.3333 137.24 64.625 137.281C64.9375 137.344 65.2083 137.375 65.4375 137.375C65.6042 137.375 65.7708 137.354 65.9375 137.312C66.125 137.292 66.2917 137.24 66.4375 137.156C66.6042 137.073 66.7396 136.958 66.8438 136.812C66.9479 136.646 67 136.448 67 136.219C67 135.885 66.9688 135.552 66.9062 135.219C66.8438 134.865 66.7708 134.51 66.6875 134.156L66.4375 132.75C66.2083 131.125 66.0417 129.417 65.9375 127.625C65.8542 125.812 65.8125 124.104 65.8125 122.5C65.8125 121.333 65.8229 120.188 65.8438 119.062C65.8646 117.917 65.8958 116.76 65.9375 115.594H65.9688C66.2188 115.573 66.5938 115.531 67.0938 115.469L68.6562 115.281C69.1979 115.219 69.6771 115.156 70.0938 115.094C70.5104 115.01 70.7604 114.948 70.8438 114.906H70.8125C71.2292 114.677 71.5208 114.344 71.6875 113.906C71.8542 113.469 71.9375 113.021 71.9375 112.562C71.9375 112.146 71.8229 111.833 71.5938 111.625C71.3646 111.396 71.0417 111.281 70.625 111.281C70.1458 111.281 69.6458 111.323 69.125 111.406C68.625 111.49 68.125 111.583 67.625 111.688C67.1042 111.812 66.5833 111.906 66.0625 111.969L66.1562 110.375C66.1979 109.438 66.2396 108.51 66.2812 107.594C66.3438 106.677 66.375 105.76 66.375 104.844C66.375 104.052 66.1458 103.385 65.6875 102.844C65.2292 102.302 64.5833 102.031 63.75 102.031ZM27 114.562C26.7083 114.562 26.4792 114.615 26.3125 114.719C26.1667 114.823 26.0521 114.958 25.9688 115.125C25.9062 115.271 25.8646 115.448 25.8438 115.656V125.219C25.8646 126.427 25.8854 127.625 25.9062 128.812C25.9479 130 25.9792 131.073 26 132.031C26.0417 132.99 26.0938 133.792 26.1562 134.438C26.2188 135.083 26.2917 135.469 26.375 135.594C26.5 135.802 26.6875 135.99 26.9375 136.156C27.1875 136.323 27.4583 136.469 27.75 136.594C28.0417 136.698 28.3333 136.781 28.625 136.844C28.9375 136.906 29.2188 136.938 29.4688 136.938C29.9479 136.938 30.2917 136.844 30.5 136.656C30.7292 136.448 30.8438 136.104 30.8438 135.625C30.8438 135.188 30.8229 134.771 30.7812 134.375L30.6562 133.125C30.6146 132.917 30.5833 132.708 30.5625 132.5C30.5417 132.292 30.5208 132.073 30.5 131.844C30.3958 130.719 30.3229 129.594 30.2812 128.469C30.2604 127.323 30.2292 126.167 30.1875 125C30.1458 123.708 30.0938 122.438 30.0312 121.188C29.9896 119.917 29.9167 118.646 29.8125 117.375C29.7083 116.521 29.4375 115.844 29 115.344C28.5833 114.823 27.9167 114.562 27 114.562ZM95.9062 112.531C95.0521 112.531 94.2917 112.75 93.625 113.188C92.9792 113.625 92.4167 114.198 91.9375 114.906C91.4792 115.615 91.0938 116.417 90.7812 117.312C90.4688 118.208 90.2188 119.115 90.0312 120.031C89.8646 120.948 89.7396 121.833 89.6562 122.688C89.5938 123.542 89.5625 124.281 89.5625 124.906C89.5625 125.635 89.5938 126.448 89.6562 127.344C89.7396 128.219 89.875 129.104 90.0625 130C90.25 130.875 90.5 131.729 90.8125 132.562C91.1458 133.396 91.5729 134.146 92.0938 134.812C92.6146 135.458 93.2292 135.979 93.9375 136.375C94.6458 136.75 95.4896 136.938 96.4688 136.938C97.1562 136.938 97.8438 136.76 98.5312 136.406C99.2396 136.052 99.8646 135.604 100.406 135.062C100.948 134.5 101.385 133.885 101.719 133.219C102.073 132.552 102.25 131.906 102.25 131.281C102.25 131.031 102.177 130.781 102.031 130.531C101.885 130.26 101.698 130.021 101.469 129.812C101.24 129.583 100.99 129.396 100.719 129.25C100.448 129.104 100.198 129.031 99.9688 129.031C99.8854 129.031 99.7917 129.042 99.6875 129.062C99.6042 129.062 99.5208 129.104 99.4375 129.188H99.4688C99.2188 129.354 99.0208 129.552 98.875 129.781C98.75 130.01 98.6146 130.26 98.4688 130.531C98.4479 130.573 98.4271 130.604 98.4062 130.625C98.4062 130.646 98.3854 130.688 98.3438 130.75L98.1562 131.188C98.0729 131.417 97.9792 131.656 97.875 131.906C97.7917 132.156 97.6875 132.385 97.5625 132.594C97.4375 132.802 97.2917 132.969 97.125 133.094C96.9792 133.219 96.8021 133.281 96.5938 133.281C96.1771 133.281 95.8125 133.021 95.5 132.5C95.2083 131.979 94.9479 131.365 94.7188 130.656C94.5104 129.948 94.3438 129.24 94.2188 128.531C94.0938 127.802 94.0104 127.25 93.9688 126.875C94.6979 126.5 95.4271 125.958 96.1562 125.25C96.9062 124.521 97.5729 123.708 98.1562 122.812C98.7604 121.917 99.25 120.99 99.625 120.031C100 119.073 100.188 118.188 100.188 117.375C100.188 116.75 100.083 116.146 99.875 115.562C99.711 115.052 99.4754 114.598 99.168 114.199L98.8945 113.863C98.5641 113.483 98.1614 113.174 97.6875 112.938C97.1667 112.667 96.5729 112.531 95.9062 112.531ZM38.125 128.5C38.2083 128.167 38.3021 127.833 38.4062 127.5L38.5938 126.812C38.7604 126.125 38.9896 125.323 39.2812 124.406C39.5938 123.49 39.9375 122.552 40.3125 121.594C40.6875 120.615 41.0833 119.677 41.5 118.781C41.9167 117.885 42.3333 117.104 42.75 116.438L42.5625 118.562C42.4792 119.417 42.3958 120.26 42.3125 121.094C42.25 121.927 42.2188 122.792 42.2188 123.688C42.2188 124.688 42.25 125.719 42.3125 126.781C42.3316 127.1 42.3539 127.416 42.375 127.729L40.5254 127.28C40.6266 127.163 40.7256 127.044 40.8232 126.924L41.0518 126.787L40.9316 126.792C41.0378 126.659 41.1422 126.526 41.2441 126.391C41.0909 126.513 40.9362 126.63 40.7822 126.746L40.502 127.307C40.5096 127.298 40.5177 127.289 40.5254 127.28L42.375 127.729C42.4228 128.438 42.4734 129.133 42.5312 129.812C42.6354 130.792 42.7396 131.688 42.8438 132.5C42.9479 133.312 43.0312 133.969 43.0938 134.469L43.1875 135.312C43.2292 135.854 43.3125 136.406 43.4375 136.969C43.5833 137.531 43.875 137.969 44.3125 138.281C44.6667 138.469 45.0625 138.583 45.5 138.625C45.9583 138.688 46.3646 138.719 46.7188 138.719C47.0729 138.719 47.4271 138.656 47.7812 138.531C48.1562 138.406 48.3438 138.115 48.3438 137.656C48.3438 137.344 48.3125 136.99 48.25 136.594C48.1875 136.198 48.1042 135.792 48 135.375C47.9167 134.938 47.8229 134.521 47.7188 134.125C47.6354 133.708 47.5521 133.344 47.4688 133.031C47.3646 132.656 47.2604 132.135 47.1562 131.469C47.0521 130.781 46.9583 130.021 46.875 129.188C46.7917 128.333 46.7292 127.448 46.6875 126.531C46.6458 125.594 46.625 124.688 46.625 123.812C46.625 123.083 46.6458 122.365 46.6875 121.656C46.7292 120.948 46.7812 120.229 46.8438 119.5L46.9688 117.375C47.0104 116.646 47.0312 115.927 47.0312 115.219C47.0312 114.698 46.9792 114.208 46.875 113.75C46.7917 113.292 46.625 112.896 46.375 112.562C46.1458 112.208 45.8333 111.938 45.4375 111.75C45.0417 111.562 44.5417 111.469 43.9375 111.469C43.2083 111.469 42.5417 111.635 41.9375 111.969C41.3542 112.302 40.8125 112.74 40.3125 113.281C39.8333 113.802 39.4062 114.385 39.0312 115.031C38.6562 115.656 38.3229 116.26 38.0312 116.844C38.0521 116.74 38.0625 116.625 38.0625 116.5C38.0833 116.375 38.0938 116.26 38.0938 116.156C38.1354 115.781 38.1667 115.385 38.1875 114.969C38.2083 114.531 38.2188 114.135 38.2188 113.781C38.2188 113.448 38.1458 113.125 38 112.812C37.875 112.5 37.6979 112.24 37.4688 112.031C37.2396 111.802 36.9688 111.625 36.6562 111.5C36.3646 111.354 36.0521 111.281 35.7188 111.281C35.4271 111.281 35.1875 111.354 35 111.5C34.8333 111.646 34.6979 111.833 34.5938 112.062C34.5104 112.271 34.4479 112.51 34.4062 112.781C34.3646 113.052 34.3333 113.302 34.3125 113.531C34.3125 113.573 34.3021 113.635 34.2812 113.719C34.2604 113.802 34.25 113.875 34.25 113.938C34.0833 115.688 33.9271 117.51 33.7812 119.406C33.6354 121.281 33.5625 123.094 33.5625 124.844V128.688C33.5625 129.958 33.5833 131.198 33.625 132.406C33.6667 133.594 33.8333 134.812 34.125 136.062C34.2083 136.458 34.3542 136.781 34.5625 137.031C34.7917 137.281 35.0521 137.479 35.3438 137.625C35.6562 137.771 35.9792 137.865 36.3125 137.906C36.6667 137.969 37.0208 138 37.375 138C37.7708 138 38.1042 137.927 38.375 137.781C38.6667 137.635 38.8125 137.323 38.8125 136.844C38.8125 136.573 38.7917 136.271 38.75 135.938C38.7292 135.583 38.6979 135.25 38.6562 134.938C38.6146 134.625 38.5729 134.354 38.5312 134.125C38.4896 133.896 38.4688 133.76 38.4688 133.719C38.3854 133.177 38.3125 132.646 38.25 132.125C38.1875 131.688 38.1354 131.229 38.0938 130.75C38.0521 130.25 38.0312 129.812 38.0312 129.438C38.0312 129.374 38.0331 129.309 38.0361 129.243C38.1526 129.292 38.2671 129.341 38.3818 129.386C38.6326 129.178 38.8778 128.966 39.1143 128.747L38.4922 128.592L38.2734 128.596L38.0615 128.921C38.0769 128.785 38.098 128.644 38.125 128.5ZM40.2354 127.142C39.694 127.519 39.1516 127.858 38.6113 128.16L38.7734 128.153L38.498 128.318L38.4521 128.319L38.417 128.373L39.5449 128.334C39.5565 128.322 39.5675 128.31 39.5791 128.299L38.498 128.318L38.7734 128.153L39.7578 128.117C39.7718 128.103 39.7859 128.089 39.7998 128.074L40.1475 127.329L40.2549 127.265L40.1865 127.246L40.2354 127.142ZM40.2549 127.265L40.1475 127.329L40.1865 127.246L40.2549 127.265ZM40.8232 126.924C40.8387 126.905 40.8547 126.886 40.8701 126.867L40.9229 126.864L40.8232 126.924ZM40.9229 126.864L40.8701 126.867L40.8711 126.865L40.9258 126.862L40.9229 126.864ZM40.9258 126.862L40.8711 126.865C40.891 126.841 40.9119 126.817 40.9316 126.792L41.0518 126.787L40.9258 126.862ZM95.875 116.25C95.9583 116.417 96.0104 116.615 96.0312 116.844C96.0521 117.073 96.0625 117.292 96.0625 117.5C96.0625 118.312 95.8542 119.135 95.4375 119.969C95.0208 120.781 94.5417 121.51 94 122.156C94.0417 121.698 94.1042 121.198 94.1875 120.656C94.2917 120.115 94.4167 119.583 94.5625 119.062C94.7083 118.521 94.8854 118.01 95.0938 117.531C95.3229 117.031 95.5833 116.604 95.875 116.25ZM26.5625 106.219C26.4167 106.219 26.2708 106.24 26.125 106.281C25.9792 106.323 25.8542 106.427 25.75 106.594V106.562C25.7083 106.604 25.6458 106.802 25.5625 107.156C25.5 107.51 25.4167 107.906 25.3125 108.344C25.2292 108.781 25.1562 109.198 25.0938 109.594C25.0312 109.969 25 110.198 25 110.281C25 110.552 25.1458 110.781 25.4375 110.969C25.75 111.156 26.1042 111.302 26.5 111.406C26.9167 111.51 27.3229 111.594 27.7188 111.656C28.1146 111.698 28.4062 111.719 28.5938 111.719C29.0104 111.719 29.2917 111.646 29.4375 111.5C29.6042 111.333 29.6875 111.073 29.6875 110.719C29.6875 110.573 29.6771 110.438 29.6562 110.312C29.6562 110.188 29.6458 110.073 29.625 109.969L29.5625 109.656V109.094C29.5833 108.969 29.5938 108.865 29.5938 108.781C29.6146 108.552 29.6146 108.302 29.5938 108.031C29.5938 107.74 29.5625 107.51 29.5 107.344C29.4375 107.177 29.2812 107.021 29.0312 106.875C28.7812 106.729 28.5 106.615 28.1875 106.531C27.8958 106.427 27.5938 106.354 27.2812 106.312C26.9896 106.25 26.75 106.219 26.5625 106.219ZM14.6064 99.6279C14.5183 99.7384 14.431 99.8482 14.3467 99.959C14.4618 99.8663 14.5786 99.7751 14.6963 99.6846L14.6064 99.6279ZM39.1562 27.9375C38.6146 27.9375 38.0729 27.9792 37.5312 28.0625C36.9896 28.125 36.4688 28.25 35.9688 28.4375C34.5938 28.8958 33.3854 29.5312 32.3438 30.3438C31.3229 31.1562 30.4375 32.0938 29.6875 33.1562C28.9375 34.1979 28.3125 35.3438 27.8125 36.5938C27.3125 37.8229 26.9167 39.1042 26.625 40.4375C26.3333 41.75 26.125 43.0833 26 44.4375C25.8958 45.7917 25.8438 47.1042 25.8438 48.375C25.8438 50.5417 25.9792 52.7083 26.25 54.875C26.5208 57.0208 26.9062 59.1667 27.4062 61.3125C27.7396 62.7917 28.1875 64.2708 28.75 65.75C29.3333 67.2292 30.0729 68.5729 30.9688 69.7812C31.8646 70.9688 32.9479 71.9375 34.2188 72.6875C35.4896 73.4375 37.0104 73.8125 38.7812 73.8125C40.1146 73.8125 41.3333 73.6042 42.4375 73.1875C43.5417 72.7708 44.5312 72.1979 45.4062 71.4688C46.2812 70.7396 47.0521 69.875 47.7188 68.875C48.3854 67.8542 48.9479 66.75 49.4062 65.5625C49.5104 65.2708 49.6042 64.9792 49.6875 64.6875C49.7917 64.375 49.8438 64.0625 49.8438 63.75C49.8438 63.3958 49.7188 63.0729 49.4688 62.7812C49.2188 62.4896 48.9062 62.2396 48.5312 62.0312C48.1771 61.8229 47.7917 61.6667 47.375 61.5625C46.9792 61.4375 46.6354 61.375 46.3438 61.375C46.0729 61.375 45.8646 61.4062 45.7188 61.4688C45.5729 61.5312 45.4479 61.625 45.3438 61.75C45.2604 61.875 45.1875 62.0208 45.125 62.1875C45.0833 62.3542 45.0312 62.5417 44.9688 62.75C44.7812 63.4792 44.5208 64.2708 44.1875 65.125C43.875 65.9583 43.4688 66.7396 42.9688 67.4688C42.4896 68.1771 41.9062 68.7708 41.2188 69.25C40.5312 69.7083 39.7396 69.9375 38.8438 69.9375C37.9688 69.9375 37.1771 69.6771 36.4688 69.1562C35.7812 68.6354 35.1562 67.9375 34.5938 67.0625C34.0521 66.1875 33.5625 65.1667 33.125 64C32.7083 62.8333 32.3438 61.6146 32.0312 60.3438C31.7396 59.0729 31.4896 57.7812 31.2812 56.4688C31.0729 55.1354 30.9062 53.875 30.7812 52.6875C30.6771 51.5 30.5938 50.4167 30.5312 49.4375C30.4896 48.4375 30.4688 47.625 30.4688 47C30.4688 45.1458 30.6458 43.3021 31 41.4688C31.3542 39.6146 31.9688 37.875 32.8438 36.25C33.1771 35.6667 33.5521 35.0938 33.9688 34.5312C34.4062 33.9479 34.8854 33.4271 35.4062 32.9688C35.9479 32.5104 36.5312 32.1458 37.1562 31.875C37.8021 31.5833 38.4896 31.4375 39.2188 31.4375C39.9479 31.4375 40.5208 31.5625 40.9375 31.8125C41.3542 32.0625 41.6875 32.375 41.9375 32.75C42.1875 33.125 42.3958 33.5312 42.5625 33.9688C42.75 34.4062 42.9792 34.8125 43.25 35.1875C43.5208 35.5625 43.8646 35.875 44.2812 36.125C44.7188 36.375 45.3229 36.5 46.0938 36.5C46.5104 36.5 46.8021 36.4062 46.9688 36.2188C47.1354 36.0312 47.2188 35.75 47.2188 35.375C47.2188 34.25 47 33.2292 46.5625 32.3125C46.1458 31.3958 45.5625 30.6146 44.8125 29.9688C44.0833 29.3229 43.2292 28.8229 42.25 28.4688C41.2708 28.1146 40.2396 27.9375 39.1562 27.9375ZM57.625 47.6562C57.2083 47.6562 56.8438 47.8438 56.5312 48.2188C56.2396 48.5729 55.9792 48.9062 55.75 49.2188L55.5625 49.5V49.4688C54.7708 50.6146 54.0417 51.9583 53.375 53.5C52.7083 55.0208 52.125 56.6146 51.625 58.2812C51.125 59.9271 50.7292 61.5833 50.4375 63.25C50.1667 64.8958 50.0312 66.4271 50.0312 67.8438C50.0312 68.4479 50.0833 69.0833 50.1875 69.75C50.3125 70.4167 50.5104 71.0312 50.7812 71.5938C51.0729 72.1354 51.4688 72.5938 51.9688 72.9688C52.4688 73.3229 53.0938 73.5 53.8438 73.5C54.5521 73.5 55.1979 73.3229 55.7812 72.9688C56.3854 72.6146 56.9271 72.1667 57.4062 71.625C57.8854 71.0625 58.3021 70.4583 58.6562 69.8125C59.0312 69.1458 59.3438 68.5104 59.5938 67.9062C59.6354 68.1979 59.6771 68.3958 59.7188 68.5C59.7604 68.6042 59.8021 68.7917 59.8438 69.0625C59.8854 69.3542 59.9375 69.6562 60 69.9688L60.1875 70.8438C60.3958 71.6979 60.7083 72.3854 61.125 72.9062C61.5625 73.4271 62.2708 73.6875 63.25 73.6875C63.625 73.6875 63.9167 73.6042 64.125 73.4375C64.3333 73.2917 64.4375 73.0104 64.4375 72.5938C64.4375 72.3021 64.4062 72.0417 64.3438 71.8125C64.3021 71.5833 64.2604 71.3333 64.2188 71.0625L64.125 70.5312L63.375 65.9062C63.2917 65.2812 63.2083 64.6042 63.125 63.875C63.0417 63.125 62.9583 62.3542 62.875 61.5625C62.7708 60.7917 62.6771 60.0208 62.5938 59.25C62.5312 58.4792 62.4479 57.7917 62.3438 57.1875L62.125 56.0312C62.0417 55.6771 61.9583 55.3333 61.875 55C61.8125 54.6667 61.7812 54.3958 61.7812 54.1875V53.5625C61.7812 53.3333 61.7917 53.1354 61.8125 52.9688C61.8333 52.8021 61.8438 52.6354 61.8438 52.4688V52C61.8438 51.6458 61.8125 51.3229 61.75 51.0312C61.6875 50.7188 61.5625 50.4479 61.375 50.2188C61.1875 49.9896 60.9271 49.8021 60.5938 49.6562C60.2604 49.4896 59.8229 49.3542 59.2812 49.25C59.1562 48.875 58.9479 48.5208 58.6562 48.1875C58.3646 47.8333 58.0208 47.6562 57.625 47.6562ZM69.75 38.0312C69.375 38.0312 69.1146 38.1146 68.9688 38.2812C68.8438 38.4479 68.7292 38.6667 68.625 38.9375C68.5625 39.1667 68.5 39.5625 68.4375 40.125C68.375 40.6667 68.3229 41.3021 68.2812 42.0312C68.2396 42.7396 68.1979 43.4896 68.1562 44.2812C68.1146 45.0521 68.0833 45.7812 68.0625 46.4688C68.0417 46.9062 68.0208 47.3125 68 47.6875C67.9792 48.0417 67.9583 48.3438 67.9375 48.5938C67.875 48.5938 67.8333 48.6042 67.8125 48.625H67.6875C67.2917 48.6667 66.8854 48.7292 66.4688 48.8125C66.0521 48.875 65.6667 49 65.3125 49.1875C64.9583 49.3542 64.6667 49.5938 64.4375 49.9062C64.2083 50.2188 64.0938 50.6354 64.0938 51.1562C64.0938 51.5938 64.2292 51.875 64.5 52C64.7708 52.125 65.0833 52.1875 65.4375 52.1875C65.7292 52.1875 66.0104 52.1771 66.2812 52.1562C66.5729 52.1354 66.8542 52.1042 67.125 52.0625C67.1771 52.0625 67.2292 52.0599 67.2812 52.0547L67.5938 52.0078C67.6458 52.0026 67.6979 52 67.75 52C67.6875 53.4375 67.625 54.8438 67.5625 56.2188C67.5208 57.5729 67.5 58.9792 67.5 60.4375V61.875C67.5208 62.5 67.5417 63.2083 67.5625 64C67.6042 64.7917 67.6458 65.625 67.6875 66.5C67.7292 67.3542 67.7812 68.1667 67.8438 68.9375C67.9062 69.6875 67.9792 70.3542 68.0625 70.9375C68.1667 71.5 68.2812 71.8854 68.4062 72.0938C68.5312 72.3229 68.7083 72.5208 68.9375 72.6875C69.1875 72.8333 69.4583 72.9583 69.75 73.0625C70.0417 73.1667 70.3333 73.2396 70.625 73.2812C70.9375 73.3438 71.2083 73.375 71.4375 73.375C71.6042 73.375 71.7708 73.3542 71.9375 73.3125C72.125 73.2917 72.2917 73.2396 72.4375 73.1562C72.6042 73.0729 72.7396 72.9583 72.8438 72.8125C72.9479 72.6458 73 72.4479 73 72.2188C73 71.8854 72.9688 71.5521 72.9062 71.2188C72.8438 70.8646 72.7708 70.5104 72.6875 70.1562L72.4375 68.75C72.2083 67.125 72.0417 65.4167 71.9375 63.625C71.8542 61.8125 71.8125 60.1042 71.8125 58.5C71.8125 57.3333 71.8229 56.1875 71.8438 55.0625C71.8646 53.9167 71.8958 52.7604 71.9375 51.5938H71.9688C72.2188 51.5729 72.5938 51.5312 73.0938 51.4688L74.6562 51.2812C75.1979 51.2188 75.6771 51.1562 76.0938 51.0938C76.5104 51.0104 76.7604 50.9479 76.8438 50.9062H76.8125C77.2292 50.6771 77.5208 50.3438 77.6875 49.9062C77.8542 49.4688 77.9375 49.0208 77.9375 48.5625C77.9375 48.1458 77.8229 47.8333 77.5938 47.625C77.3646 47.3958 77.0417 47.2812 76.625 47.2812C76.1458 47.2812 75.6458 47.3229 75.125 47.4062C74.625 47.4896 74.125 47.5833 73.625 47.6875C73.1042 47.8125 72.5833 47.9062 72.0625 47.9688L72.1562 46.375C72.1979 45.4375 72.2396 44.5104 72.2812 43.5938C72.3438 42.6771 72.375 41.7604 72.375 40.8438C72.375 40.0521 72.1458 39.3854 71.6875 38.8438C71.2292 38.3021 70.5833 38.0312 69.75 38.0312ZM57.25 54.4375C57.2708 54.5208 57.2812 54.5833 57.2812 54.625C57.2812 55.4792 57.2188 56.5625 57.0938 57.875C56.9896 59.1667 56.8125 60.5104 56.5625 61.9062C56.3125 63.2812 56 64.6042 55.625 65.875C55.2708 67.125 54.8438 68.1354 54.3438 68.9062V68.875C54.3229 68.7917 54.3125 68.7083 54.3125 68.625V68.3438C54.3125 67.2396 54.3646 66.0729 54.4688 64.8438C54.5938 63.5938 54.7708 62.3542 55 61.125C55.25 59.875 55.5521 58.6562 55.9062 57.4688C56.2812 56.2604 56.7083 55.1458 57.1875 54.125L57.25 54.4375ZM39.168 128.695C39.2098 128.656 39.2507 128.616 39.292 128.577L38.6035 128.59L39.168 128.695Z" fill="#9CC2FF"/>
<g clip-path="url(#clip0_1_4)">
<path d="M178.209 36.7115L131.682 73.498L118.159 8.57769L178.209 36.7115Z" fill="#F0EBFF" stroke="#9A8AC7" stroke-width="7.5" stroke-miterlimit="10"/>
<path d="M129.77 80.2676C132.549 52.3771 157.411 32.0199 185.301 34.7983C213.192 37.5768 233.549 62.4389 230.771 90.3293C229.048 107.623 222.837 125.307 208.676 133.088C199.998 137.856 185.836 136.854 175.24 135.799C161.294 134.409 141.23 130.551 133.002 120.502C124.774 110.453 128.381 94.2128 129.77 80.2676Z" fill="#F0EBFF" stroke="#9A8AC7" stroke-width="7.5" stroke-miterlimit="10"/>
<path d="M204.237 90.1831C209.158 92.302 209.33 102.449 204.029 105.128C194.987 109.699 185.92 89.8868 195.746 85.0271" fill="black" fill-opacity="0.06275"/>
<path d="M204.237 90.1831C209.158 92.302 209.33 102.449 204.029 105.128C194.987 109.699 185.92 89.8868 195.746 85.0271" stroke="black" stroke-width="7.5" stroke-miterlimit="10" stroke-linecap="round"/>
<path d="M158.799 85.9581C155.398 116.006 129.361 81.5566 149.542 71.3703Z" fill="black" fill-opacity="0.06275"/>
<path d="M158.799 85.9581C155.398 116.006 129.361 81.5566 149.542 71.3703" stroke="black" stroke-width="7.5" stroke-miterlimit="10" stroke-linecap="round"/>
<path d="M199.556 124.772C193.308 128.063 183.401 132.397 177.212 125.853C175.625 124.175 173.489 120.238 172.84 118.01C172.28 116.091 174.113 112.268 172.125 112.055C168.322 111.647 168.439 119.817 164.757 120.851C156.091 123.285 143.297 118.442 136.147 113.929" stroke="black" stroke-width="7.5" stroke-miterlimit="10" stroke-linecap="round"/>
<path d="M167.778 97.4175C171.337 96.7735 180.849 96.557 178.953 103.032C175.745 113.985 163.601 101.216 166.659 96.6761C169.257 92.8181 172.632 99.1851 172.998 100.569" stroke="black" stroke-width="7.5" stroke-miterlimit="10" stroke-linecap="round"/>
<path d="M200.728 44.2655L265.653 27.3536C265.653 27.3536 244.092 76.7555 241.341 83.0594C240.778 84.3483 228.41 89.5669 228.41 89.5669" fill="#F0EBFF"/>
<path d="M200.728 44.2655L265.653 27.3536C265.653 27.3536 244.092 76.7555 241.341 83.0594C240.778 84.3483 228.41 89.5669 228.41 89.5669" stroke="#9A8AC7" stroke-width="7.5" stroke-miterlimit="10" stroke-linecap="round"/>
<path d="M198.669 116.666C208.583 111.985 217.692 105.352 227.687 101.039" stroke="black" stroke-width="1.5" stroke-miterlimit="10" stroke-linecap="round"/>
<path d="M208.197 117.615C215.267 121.013 222.735 124.62 229.212 129.079" stroke="black" stroke-width="1.5" stroke-miterlimit="10" stroke-linecap="round"/>
<path d="M155.266 108.011C145.093 108.015 136.556 101.03 128.375 95.8527" stroke="black" stroke-width="1.5" stroke-miterlimit="10" stroke-linecap="round"/>
<path d="M154.791 112.776C142.797 111.581 131.604 107.278 119.568 105.925" stroke="black" stroke-width="1.5" stroke-miterlimit="10" stroke-linecap="round"/>
</g>
<defs>
<clipPath id="clip0_1_4">
<rect width="160.396" height="130.716" fill="white" transform="translate(112.958 2) rotate(5.68909)"/>
</clipPath>
</defs>
</svg>
